<svg xmlns="http://www.w3.org/2000/svg" width="1000" height="800" viewBox="0 0 1000 800">
  <!-- Background and Title -->
  <rect width="1000" height="800" fill="#f8f9fa" />
  <text x="500" y="40" font-family="Arial" font-size="24" font-weight="bold" text-anchor="middle" fill="#333">ForgeOne Plugin Extension Points</text>
  
  <!-- Main Container -->
  <rect x="50" y="70" width="900" height="680" rx="10" ry="10" fill="#fff" stroke="#ddd" stroke-width="2" />
  
  <!-- Core Application -->
  <rect x="100" y="100" width="800" height="100" rx="5" ry="5" fill="#e6f7ff" stroke="#1890ff" stroke-width="2" />
  <text x="500" y="130" font-family="Arial" font-size="18" font-weight="bold" text-anchor="middle" fill="#333">ForgeOne Core Application</text>
  
  <rect x="150" y="150" width="150" height="30" rx="5" ry="5" fill="#bae7ff" stroke="#1890ff" stroke-width="1" />
  <text x="225" y="170" font-family="Arial" font-size="14" text-anchor="middle" fill="#333">Microkernel</text>
  
  <rect x="350" y="150" width="150" height="30" rx="5" ry="5" fill="#bae7ff" stroke="#1890ff" stroke-width="1" />
  <text x="425" y="170" font-family="Arial" font-size="14" text-anchor="middle" fill="#333">Runtime</text>
  
  <rect x="550" y="150" width="150" height="30" rx="5" ry="5" fill="#bae7ff" stroke="#1890ff" stroke-width="1" />
  <text x="625" y="170" font-family="Arial" font-size="14" text-anchor="middle" fill="#333">Common Module</text>
  
  <rect x="750" y="150" width="100" height="30" rx="5" ry="5" fill="#bae7ff" stroke="#1890ff" stroke-width="1" />
  <text x="800" y="170" font-family="Arial" font-size="14" text-anchor="middle" fill="#333">API</text>
  
  <!-- Extension Points Layer -->
  <rect x="100" y="220" width="800" height="80" rx="5" ry="5" fill="#f6ffed" stroke="#52c41a" stroke-width="2" />
  <text x="500" y="260" font-family="Arial" font-size="18" font-weight="bold" text-anchor="middle" fill="#333">Extension Points Layer</text>
  
  <!-- Extension Points -->
  <rect x="100" y="320" width="800" height="350" rx="5" ry="5" fill="#fff7e6" stroke="#fa8c16" stroke-width="2" />
  
  <!-- UI Extension Points -->
  <rect x="120" y="340" width="230" height="150" rx="5" ry="5" fill="#f9f0ff" stroke="#722ed1" stroke-width="2" />
  <text x="235" y="365" font-family="Arial" font-size="16" font-weight="bold" text-anchor="middle" fill="#333">UI Extension Points</text>
  
  <rect x="140" y="380" width="190" height="30" rx="5" ry="5" fill="#efdbff" stroke="#722ed1" stroke-width="1" />
  <text x="235" y="400" font-family="Arial" font-size="14" text-anchor="middle" fill="#333">Dashboard Widgets</text>
  
  <rect x="140" y="420" width="190" height="30" rx="5" ry="5" fill="#efdbff" stroke="#722ed1" stroke-width="1" />
  <text x="235" y="440" font-family="Arial" font-size="14" text-anchor="middle" fill="#333">Custom Views</text>
  
  <rect x="140" y="460" width="190" height="30" rx="5" ry="5" fill="#efdbff" stroke="#722ed1" stroke-width="1" />
  <text x="235" y="480" font-family="Arial" font-size="14" text-anchor="middle" fill="#333">Themes</text>
  
  <!-- Data Extension Points -->
  <rect x="370" y="340" width="230" height="150" rx="5" ry="5" fill="#fff0f6" stroke="#eb2f96" stroke-width="2" />
  <text x="485" y="365" font-family="Arial" font-size="16" font-weight="bold" text-anchor="middle" fill="#333">Data Extension Points</text>
  
  <rect x="390" y="380" width="190" height="30" rx="5" ry="5" fill="#ffd6e7" stroke="#eb2f96" stroke-width="1" />
  <text x="485" y="400" font-family="Arial" font-size="14" text-anchor="middle" fill="#333">Data Providers</text>
  
  <rect x="390" y="420" width="190" height="30" rx="5" ry="5" fill="#ffd6e7" stroke="#eb2f96" stroke-width="1" />
  <text x="485" y="440" font-family="Arial" font-size="14" text-anchor="middle" fill="#333">Data Transformers</text>
  
  <rect x="390" y="460" width="190" height="30" rx="5" ry="5" fill="#ffd6e7" stroke="#eb2f96" stroke-width="1" />
  <text x="485" y="480" font-family="Arial" font-size="14" text-anchor="middle" fill="#333">Storage Adapters</text>
  
  <!-- Security Extension Points -->
  <rect x="620" y="340" width="230" height="150" rx="5" ry="5" fill="#e6fffb" stroke="#13c2c2" stroke-width="2" />
  <text x="735" y="365" font-family="Arial" font-size="16" font-weight="bold" text-anchor="middle" fill="#333">Security Extension Points</text>
  
  <rect x="640" y="380" width="190" height="30" rx="5" ry="5" fill="#b5f5ec" stroke="#13c2c2" stroke-width="1" />
  <text x="735" y="400" font-family="Arial" font-size="14" text-anchor="middle" fill="#333">Authentication Providers</text>
  
  <rect x="640" y="420" width="190" height="30" rx="5" ry="5" fill="#b5f5ec" stroke="#13c2c2" stroke-width="1" />
  <text x="735" y="440" font-family="Arial" font-size="14" text-anchor="middle" fill="#333">Policy Engines</text>
  
  <rect x="640" y="460" width="190" height="30" rx="5" ry="5" fill="#b5f5ec" stroke="#13c2c2" stroke-width="1" />
  <text x="735" y="480" font-family="Arial" font-size="14" text-anchor="middle" fill="#333">Encryption Modules</text>
  
  <!-- Runtime Extension Points -->
  <rect x="120" y="510" width="230" height="150" rx="5" ry="5" fill="#fcffe6" stroke="#a0d911" stroke-width="2" />
  <text x="235" y="535" font-family="Arial" font-size="16" font-weight="bold" text-anchor="middle" fill="#333">Runtime Extension Points</text>
  
  <rect x="140" y="550" width="190" height="30" rx="5" ry="5" fill="#f4ffb8" stroke="#a0d911" stroke-width="1" />
  <text x="235" y="570" font-family="Arial" font-size="14" text-anchor="middle" fill="#333">Execution Handlers</text>
  
  <rect x="140" y="590" width="190" height="30" rx="5" ry="5" fill="#f4ffb8" stroke="#a0d911" stroke-width="1" />
  <text x="235" y="610" font-family="Arial" font-size="14" text-anchor="middle" fill="#333">Syscall Extensions</text>
  
  <rect x="140" y="630" width="190" height="30" rx="5" ry="5" fill="#f4ffb8" stroke="#a0d911" stroke-width="1" />
  <text x="235" y="650" font-family="Arial" font-size="14" text-anchor="middle" fill="#333">Resource Managers</text>
  
  <!-- Integration Extension Points -->
  <rect x="370" y="510" width="230" height="150" rx="5" ry="5" fill="#fff2e8" stroke="#fa541c" stroke-width="2" />
  <text x="485" y="535" font-family="Arial" font-size="16" font-weight="bold" text-anchor="middle" fill="#333">Integration Extension Points</text>
  
  <rect x="390" y="550" width="190" height="30" rx="5" ry="5" fill="#ffd8bf" stroke="#fa541c" stroke-width="1" />
  <text x="485" y="570" font-family="Arial" font-size="14" text-anchor="middle" fill="#333">API Connectors</text>
  
  <rect x="390" y="590" width="190" height="30" rx="5" ry="5" fill="#ffd8bf" stroke="#fa541c" stroke-width="1" />
  <text x="485" y="610" font-family="Arial" font-size="14" text-anchor="middle" fill="#333">Protocol Adapters</text>
  
  <rect x="390" y="630" width="190" height="30" rx="5" ry="5" fill="#ffd8bf" stroke="#fa541c" stroke-width="1" />
  <text x="485" y="650" font-family="Arial" font-size="14" text-anchor="middle" fill="#333">Event Handlers</text>
  
  <!-- Telemetry Extension Points -->
  <rect x="620" y="510" width="230" height="150" rx="5" ry="5" fill="#fff1f0" stroke="#f5222d" stroke-width="2" />
  <text x="735" y="535" font-family="Arial" font-size="16" font-weight="bold" text-anchor="middle" fill="#333">Telemetry Extension Points</text>
  
  <rect x="640" y="550" width="190" height="30" rx="5" ry="5" fill="#ffccc7" stroke="#f5222d" stroke-width="1" />
  <text x="735" y="570" font-family="Arial" font-size="14" text-anchor="middle" fill="#333">Metrics Collectors</text>
  
  <rect x="640" y="590" width="190" height="30" rx="5" ry="5" fill="#ffccc7" stroke="#f5222d" stroke-width="1" />
  <text x="735" y="610" font-family="Arial" font-size="14" text-anchor="middle" fill="#333">Logging Providers</text>
  
  <rect x="640" y="630" width="190" height="30" rx="5" ry="5" fill="#ffccc7" stroke="#f5222d" stroke-width="1" />
  <text x="735" y="650" font-family="Arial" font-size="14" text-anchor="middle" fill="#333">Tracing Systems</text>
  
  <!-- Plugin Registry -->
  <rect x="100" y="690" width="800" height="50" rx="5" ry="5" fill="#f0f5ff" stroke="#2f54eb" stroke-width="2" />
  <text x="500" y="720" font-family="Arial" font-size="18" font-weight="bold" text-anchor="middle" fill="#333">Plugin Registry</text>
  
  <!-- Connecting Lines -->
  <!-- Core to Extension Points Layer -->
  <line x1="500" y1="200" x2="500" y2="220" stroke="#333" stroke-width="2" />
  
  <!-- Extension Points Layer to Extension Points -->
  <line x1="500" y1="300" x2="500" y2="320" stroke="#333" stroke-width="2" />
  
  <!-- Extension Points to Plugin Registry -->
  <line x1="500" y1="670" x2="500" y2="690" stroke="#333" stroke-width="2" />
  
  <!-- Arrows from Core Components to Extension Points -->
  <path d="M 225 180 Q 225 240 235 340" fill="none" stroke="#1890ff" stroke-width="1" stroke-dasharray="5,5" marker-end="url(#arrowhead)" />
  <path d="M 425 180 Q 425 240 485 340" fill="none" stroke="#1890ff" stroke-width="1" stroke-dasharray="5,5" marker-end="url(#arrowhead)" />
  <path d="M 625 180 Q 625 240 735 340" fill="none" stroke="#1890ff" stroke-width="1" stroke-dasharray="5,5" marker-end="url(#arrowhead)" />
  <path d="M 800 180 Q 800 240 735 510" fill="none" stroke="#1890ff" stroke-width="1" stroke-dasharray="5,5" marker-end="url(#arrowhead)" />
  
  <!-- Arrowhead Marker -->
  <defs>
    <marker id="arrowhead" markerWidth="10" markerHeight="7" refX="9" refY="3.5" orient="auto">
      <polygon points="0 0, 10 3.5, 0 7" fill="#333" />
    </marker>
  </defs>
  
  <!-- Legend -->
  <rect x="100" y="750" width="800" height="30" rx="5" ry="5" fill="none" />
  <text x="500" y="770" font-family="Arial" font-size="14" text-anchor="middle" fill="#333">
    Extension Point Categories: UI | Data | Security | Runtime | Integration | Telemetry
  </text>
</svg>