<svg xmlns="http://www.w3.org/2000/svg" width="1000" height="800" viewBox="0 0 1000 800">
  <!-- Background and Title -->
  <rect width="1000" height="800" fill="#f8f9fa" />
  <text x="500" y="40" font-family="Arial" font-size="24" font-weight="bold" text-anchor="middle" fill="#333">ForgeOne Microkernel Execution Model</text>
  
  <!-- Main Container -->
  <rect x="50" y="70" width="900" height="680" rx="10" ry="10" fill="#fff" stroke="#ddd" stroke-width="2" />
  
  <!-- Execution Environments -->
  <rect x="100" y="100" width="800" height="120" rx="5" ry="5" fill="#e6f7ff" stroke="#1890ff" stroke-width="2" />
  <text x="500" y="125" font-family="Arial" font-size="18" font-weight="bold" text-anchor="middle" fill="#333">Execution Environments</text>
  
  <!-- WASM Environment -->
  <rect x="120" y="140" width="240" height="60" rx="5" ry="5" fill="#bae7ff" stroke="#1890ff" stroke-width="1" />
  <text x="240" y="165" font-family="Arial" font-size="16" font-weight="bold" text-anchor="middle" fill="#333">WASM Environment</text>
  <text x="240" y="185" font-family="Arial" font-size="12" text-anchor="middle" fill="#333">Memory-safe Execution</text>
  
  <!-- Plugin Environment -->
  <rect x="380" y="140" width="240" height="60" rx="5" ry="5" fill="#bae7ff" stroke="#1890ff" stroke-width="1" />
  <text x="500" y="165" font-family="Arial" font-size="16" font-weight="bold" text-anchor="middle" fill="#333">Plugin Environment</text>
  <text x="500" y="185" font-family="Arial" font-size="12" text-anchor="middle" fill="#333">Native Code Execution</text>
  
  <!-- Sandbox Environment -->
  <rect x="640" y="140" width="240" height="60" rx="5" ry="5" fill="#bae7ff" stroke="#1890ff" stroke-width="1" />
  <text x="760" y="165" font-family="Arial" font-size="16" font-weight="bold" text-anchor="middle" fill="#333">Sandbox Environment</text>
  <text x="760" y="185" font-family="Arial" font-size="12" text-anchor="middle" fill="#333">Isolated Execution</text>
  
  <!-- Execution Engine -->
  <rect x="100" y="240" width="800" height="100" rx="5" ry="5" fill="#fff7e6" stroke="#fa8c16" stroke-width="2" />
  <text x="500" y="265" font-family="Arial" font-size="18" font-weight="bold" text-anchor="middle" fill="#333">Execution Engine</text>
  
  <!-- Execution Components -->
  <rect x="120" y="280" width="180" height="40" rx="5" ry="5" fill="#ffe7ba" stroke="#fa8c16" stroke-width="1" />
  <text x="210" y="305" font-family="Arial" font-size="14" text-anchor="middle" fill="#333">WASM Runtime</text>
  
  <rect x="320" y="280" width="180" height="40" rx="5" ry="5" fill="#ffe7ba" stroke="#fa8c16" stroke-width="1" />
  <text x="410" y="305" font-family="Arial" font-size="14" text-anchor="middle" fill="#333">Plugin Manager</text>
  
  <rect x="520" y="280" width="180" height="40" rx="5" ry="5" fill="#ffe7ba" stroke="#fa8c16" stroke-width="1" />
  <text x="610" y="305" font-family="Arial" font-size="14" text-anchor="middle" fill="#333">Syscall Interface</text>
  
  <rect x="720" y="280" width="160" height="40" rx="5" ry="5" fill="#ffe7ba" stroke="#fa8c16" stroke-width="1" />
  <text x="800" y="305" font-family="Arial" font-size="14" text-anchor="middle" fill="#333">Memory Manager</text>
  
  <!-- Scheduler -->
  <rect x="100" y="360" width="800" height="80" rx="5" ry="5" fill="#f6ffed" stroke="#52c41a" stroke-width="2" />
  <text x="500" y="385" font-family="Arial" font-size="18" font-weight="bold" text-anchor="middle" fill="#333">Scheduler</text>
  
  <rect x="150" y="400" width="160" height="30" rx="5" ry="5" fill="#d9f7be" stroke="#52c41a" stroke-width="1" />
  <text x="230" y="420" font-family="Arial" font-size="14" text-anchor="middle" fill="#333">Task Queue</text>
  
  <rect x="330" y="400" width="160" height="30" rx="5" ry="5" fill="#d9f7be" stroke="#52c41a" stroke-width="1" />
  <text x="410" y="420" font-family="Arial" font-size="14" text-anchor="middle" fill="#333">Priority Manager</text>
  
  <rect x="510" y="400" width="160" height="30" rx="5" ry="5" fill="#d9f7be" stroke="#52c41a" stroke-width="1" />
  <text x="590" y="420" font-family="Arial" font-size="14" text-anchor="middle" fill="#333">Resource Allocator</text>
  
  <rect x="690" y="400" width="160" height="30" rx="5" ry="5" fill="#d9f7be" stroke="#52c41a" stroke-width="1" />
  <text x="770" y="420" font-family="Arial" font-size="14" text-anchor="middle" fill="#333">Quantum Scheduler</text>
  
  <!-- Trust Layer -->
  <rect x="100" y="460" width="800" height="80" rx="5" ry="5" fill="#f9f0ff" stroke="#722ed1" stroke-width="2" />
  <text x="500" y="485" font-family="Arial" font-size="18" font-weight="bold" text-anchor="middle" fill="#333">Trust Layer</text>
  
  <rect x="150" y="500" width="180" height="30" rx="5" ry="5" fill="#efdbff" stroke="#722ed1" stroke-width="1" />
  <text x="240" y="520" font-family="Arial" font-size="14" text-anchor="middle" fill="#333">Code Attestation</text>
  
  <rect x="350" y="500" width="180" height="30" rx="5" ry="5" fill="#efdbff" stroke="#722ed1" stroke-width="1" />
  <text x="440" y="520" font-family="Arial" font-size="14" text-anchor="middle" fill="#333">Execution Verification</text>
  
  <rect x="550" y="500" width="180" height="30" rx="5" ry="5" fill="#efdbff" stroke="#722ed1" stroke-width="1" />
  <text x="640" y="520" font-family="Arial" font-size="14" text-anchor="middle" fill="#333">Runtime Enforcement</text>
  
  <rect x="750" y="500" width="100" height="30" rx="5" ry="5" fill="#efdbff" stroke="#722ed1" stroke-width="1" />
  <text x="800" y="520" font-family="Arial" font-size="14" text-anchor="middle" fill="#333">Redzone</text>
  
  <!-- Observer Layer -->
  <rect x="100" y="560" width="800" height="80" rx="5" ry="5" fill="#e6fffb" stroke="#13c2c2" stroke-width="2" />
  <text x="500" y="585" font-family="Arial" font-size="18" font-weight="bold" text-anchor="middle" fill="#333">Observer Layer</text>
  
  <rect x="150" y="600" width="180" height="30" rx="5" ry="5" fill="#b5f5ec" stroke="#13c2c2" stroke-width="1" />
  <text x="240" y="620" font-family="Arial" font-size="14" text-anchor="middle" fill="#333">Execution Tracing</text>
  
  <rect x="350" y="600" width="180" height="30" rx="5" ry="5" fill="#b5f5ec" stroke="#13c2c2" stroke-width="1" />
  <text x="440" y="620" font-family="Arial" font-size="14" text-anchor="middle" fill="#333">Performance Metrics</text>
  
  <rect x="550" y="600" width="180" height="30" rx="5" ry="5" fill="#b5f5ec" stroke="#13c2c2" stroke-width="1" />
  <text x="640" y="620" font-family="Arial" font-size="14" text-anchor="middle" fill="#333">Resource Monitoring</text>
  
  <rect x="750" y="600" width="100" height="30" rx="5" ry="5" fill="#b5f5ec" stroke="#13c2c2" stroke-width="1" />
  <text x="800" y="620" font-family="Arial" font-size="14" text-anchor="middle" fill="#333">Forensics</text>
  
  <!-- Core Integration -->
  <rect x="100" y="660" width="800" height="70" rx="5" ry="5" fill="#fff0f6" stroke="#eb2f96" stroke-width="2" />
  <text x="500" y="685" font-family="Arial" font-size="18" font-weight="bold" text-anchor="middle" fill="#333">Core Integration</text>
  
  <rect x="150" y="690" width="180" height="30" rx="5" ry="5" fill="#ffd6e7" stroke="#eb2f96" stroke-width="1" />
  <text x="240" y="710" font-family="Arial" font-size="14" text-anchor="middle" fill="#333">Boot Sequence</text>
  
  <rect x="350" y="690" width="180" height="30" rx="5" ry="5" fill="#ffd6e7" stroke="#eb2f96" stroke-width="1" />
  <text x="440" y="710" font-family="Arial" font-size="14" text-anchor="middle" fill="#333">Runtime Services</text>
  
  <rect x="550" y="690" width="180" height="30" rx="5" ry="5" fill="#ffd6e7" stroke="#eb2f96" stroke-width="1" />
  <text x="640" y="710" font-family="Arial" font-size="14" text-anchor="middle" fill="#333">Common Module</text>
  
  <rect x="750" y="690" width="100" height="30" rx="5" ry="5" fill="#ffd6e7" stroke="#eb2f96" stroke-width="1" />
  <text x="800" y="710" font-family="Arial" font-size="14" text-anchor="middle" fill="#333">Config</text>
  
  <!-- Connecting Lines -->
  <!-- Environments to Engine -->
  <line x1="240" y1="200" x2="240" y2="240" stroke="#333" stroke-width="1" />
  <line x1="500" y1="200" x2="500" y2="240" stroke="#333" stroke-width="1" />
  <line x1="760" y1="200" x2="760" y2="240" stroke="#333" stroke-width="1" />
  
  <!-- Engine to Scheduler -->
  <line x1="500" y1="340" x2="500" y2="360" stroke="#333" stroke-width="2" />
  
  <!-- Scheduler to Trust -->
  <line x1="500" y1="440" x2="500" y2="460" stroke="#333" stroke-width="2" />
  
  <!-- Trust to Observer -->
  <line x1="500" y1="540" x2="500" y2="560" stroke="#333" stroke-width="2" />
  
  <!-- Observer to Core -->
  <line x1="500" y1="640" x2="500" y2="660" stroke="#333" stroke-width="2" />
  
  <!-- Cross-connections -->
  <path d="M 210 305 Q 210 350 230 400" fill="none" stroke="#333" stroke-width="1" stroke-dasharray="5,5" />
  <path d="M 410 305 Q 410 350 410 400" fill="none" stroke="#333" stroke-width="1" stroke-dasharray="5,5" />
  <path d="M 610 305 Q 610 350 590 400" fill="none" stroke="#333" stroke-width="1" stroke-dasharray="5,5" />
  <path d="M 800 305 Q 800 350 770 400" fill="none" stroke="#333" stroke-width="1" stroke-dasharray="5,5" />
  
  <!-- Trust Connections -->
  <path d="M 240 520 Q 240 560 240 600" fill="none" stroke="#333" stroke-width="1" stroke-dasharray="5,5" />
  <path d="M 440 520 Q 440 560 440 600" fill="none" stroke="#333" stroke-width="1" stroke-dasharray="5,5" />
  <path d="M 640 520 Q 640 560 640 600" fill="none" stroke="#333" stroke-width="1" stroke-dasharray="5,5" />
  <path d="M 800 520 Q 800 560 800 600" fill="none" stroke="#333" stroke-width="1" stroke-dasharray="5,5" />
  
  <!-- Key Features -->
  <rect x="50" y="750" width="900" height="30" rx="5" ry="5" fill="none" />
  <text x="500" y="770" font-family="Arial" font-size="14" text-anchor="middle" fill="#333">
    Key Features: Multi-Environment Support | Quantum Scheduling | Zero-Trust Execution | Real-time Observability | Adaptive Resource Management
  </text>
</svg>