<svg xmlns="http://www.w3.org/2000/svg" xmlns:xlink="http://www.w3.org/1999/xlink" version="1.1" width="800" height="600" viewBox="0 0 800 600">
  <!-- Styles -->
  <defs>
    <style type="text/css">
      .container {
        fill: #e3f2fd;
        stroke: #1976d2;
        stroke-width: 2;
      }
      .network {
        fill: #e8f5e9;
        stroke: #388e3c;
        stroke-width: 2;
      }
      .bridge {
        fill: #fff3e0;
        stroke: #e65100;
        stroke-width: 2;
      }
      .host {
        fill: #f3e5f5;
        stroke: #7b1fa2;
        stroke-width: 2;
      }
      .connection {
        stroke: #424242;
        stroke-width: 1.5;
      }
      .veth {
        stroke: #0288d1;
        stroke-width: 1.5;
        stroke-dasharray: 5, 3;
      }
      .overlay {
        stroke: #7cb342;
        stroke-width: 1.5;
        stroke-dasharray: 10, 5;
      }
      .label {
        font-family: Arial, sans-serif;
        font-size: 12px;
        fill: #212121;
      }
      .title {
        font-family: Arial, sans-serif;
        font-size: 24px;
        font-weight: bold;
        fill: #212121;
      }
      .subtitle {
        font-family: Arial, sans-serif;
        font-size: 16px;
        fill: #424242;
      }
      .ip {
        font-family: Arial, sans-serif;
        font-size: 10px;
        fill: #616161;
      }
    </style>
    <marker id="arrowhead" markerWidth="10" markerHeight="7" refX="9" refY="3.5" orient="auto">
      <polygon points="0 0, 10 3.5, 0 7" fill="#424242" />
    </marker>
  </defs>
  
  <!-- Title -->
  <text x="400" y="40" class="title" text-anchor="middle">Quantum-Network Fabric Layer</text>
  <text x="400" y="70" class="subtitle" text-anchor="middle">Network Topology Diagram</text>
  
  <!-- Host Network -->
  <rect x="50" y="100" width="700" height="450" rx="10" ry="10" class="host" />
  <text x="400" y="125" class="label" text-anchor="middle" font-weight="bold">Host Network</text>
  
  <!-- Virtual Networks -->
  <rect x="100" y="150" width="280" height="350" rx="8" ry="8" class="network" />
  <text x="240" y="175" class="label" text-anchor="middle" font-weight="bold">Virtual Network A</text>
  <text x="240" y="195" class="ip" text-anchor="middle">CIDR: 172.20.0.0/16</text>
  
  <rect x="420" y="150" width="280" height="350" rx="8" ry="8" class="network" />
  <text x="560" y="175" class="label" text-anchor="middle" font-weight="bold">Virtual Network B</text>
  <text x="560" y="195" class="ip" text-anchor="middle">CIDR: 172.21.0.0/16</text>
  
  <!-- Bridge A -->
  <rect x="130" y="220" width="220" height="60" rx="5" ry="5" class="bridge" />
  <text x="240" y="250" class="label" text-anchor="middle" font-weight="bold">Bridge A</text>
  <text x="240" y="270" class="ip" text-anchor="middle">IP: 172.20.0.1/16</text>
  
  <!-- Bridge B -->
  <rect x="450" y="220" width="220" height="60" rx="5" ry="5" class="bridge" />
  <text x="560" y="250" class="label" text-anchor="middle" font-weight="bold">Bridge B</text>
  <text x="560" y="270" class="ip" text-anchor="middle">IP: 172.21.0.1/16</text>
  
  <!-- Containers in Network A -->
  <rect x="130" y="320" width="100" height="60" rx="5" ry="5" class="container" />
  <text x="180" y="350" class="label" text-anchor="middle" font-weight="bold">Container A1</text>
  <text x="180" y="370" class="ip" text-anchor="middle">IP: 172.20.0.2</text>
  
  <rect x="250" y="320" width="100" height="60" rx="5" ry="5" class="container" />
  <text x="300" y="350" class="label" text-anchor="middle" font-weight="bold">Container A2</text>
  <text x="300" y="370" class="ip" text-anchor="middle">IP: 172.20.0.3</text>
  
  <rect x="130" y="400" width="100" height="60" rx="5" ry="5" class="container" />
  <text x="180" y="430" class="label" text-anchor="middle" font-weight="bold">Container A3</text>
  <text x="180" y="450" class="ip" text-anchor="middle">IP: 172.20.0.4</text>
  
  <!-- Containers in Network B -->
  <rect x="450" y="320" width="100" height="60" rx="5" ry="5" class="container" />
  <text x="500" y="350" class="label" text-anchor="middle" font-weight="bold">Container B1</text>
  <text x="500" y="370" class="ip" text-anchor="middle">IP: 172.21.0.2</text>
  
  <rect x="570" y="320" width="100" height="60" rx="5" ry="5" class="container" />
  <text x="620" y="350" class="label" text-anchor="middle" font-weight="bold">Container B2</text>
  <text x="620" y="370" class="ip" text-anchor="middle">IP: 172.21.0.3</text>
  
  <!-- Connections -->
  <!-- Network A connections -->
  <line x1="180" y1="320" x2="180" y2="280" class="veth" marker-end="url(#arrowhead)" />
  <line x1="300" y1="320" x2="300" y2="280" class="veth" marker-end="url(#arrowhead)" />
  <line x1="180" y1="400" x2="180" y2="380" class="veth" />
  
  <!-- Network B connections -->
  <line x1="500" y1="320" x2="500" y2="280" class="veth" marker-end="url(#arrowhead)" />
  <line x1="620" y1="320" x2="620" y2="280" class="veth" marker-end="url(#arrowhead)" />
  
  <!-- Overlay connection between networks -->
  <path d="M 350 250 C 375 200, 425 200, 450 250" class="overlay" marker-end="url(#arrowhead)" />
  <text x="400" y="220" class="label" text-anchor="middle">Overlay Connection</text>
  
  <!-- Legend -->
  <rect x="600" y="500" width="120" height="20" rx="3" ry="3" class="container" />
  <text x="660" y="515" class="label" text-anchor="middle">Container</text>
  
  <rect x="600" y="525" width="120" height="20" rx="3" ry="3" class="bridge" />
  <text x="660" y="540" class="label" text-anchor="middle">Bridge</text>
  
  <rect x="450" y="500" width="120" height="20" rx="3" ry="3" class="network" />
  <text x="510" y="515" class="label" text-anchor="middle">Virtual Network</text>
  
  <line x1="450" y1="535" x2="510" y2="535" class="veth" />
  <text x="570" y="540" class="label" text-anchor="middle">veth pair</text>
  
  <line x1="450" y1="560" x2="510" y2="560" class="overlay" />
  <text x="570" y="565" class="label" text-anchor="middle">Overlay</text>
</svg>