<?xml version="1.0" encoding="UTF-8" standalone="no"?>
<svg xmlns="http://www.w3.org/2000/svg" xmlns:xlink="http://www.w3.org/1999/xlink" width="800" height="600" viewBox="0 0 800 600">
  <style>
    .title { font: bold 20px sans-serif; }
    .module { font: bold 14px sans-serif; }
    .description { font: 12px sans-serif; }
    .box { stroke: #333; stroke-width: 2; }
    .core { fill: #e6f7ff; }
    .security { fill: #ffe6e6; }
    .execution { fill: #e6ffe6; }
    .network { fill: #fff2e6; }
    .storage { fill: #f2e6ff; }
    .arrow { stroke: #666; stroke-width: 1.5; fill: none; marker-end: url(#arrowhead); }
    .connection { stroke-dasharray: 5,5; }
  </style>
  
  <defs>
    <marker id="arrowhead" markerWidth="10" markerHeight="7" refX="9" refY="3.5" orient="auto">
      <polygon points="0 0, 10 3.5, 0 7" fill="#666" />
    </marker>
  </defs>
  
  <rect width="100%" height="100%" fill="white" />
  
  <!-- Title -->
  <text x="400" y="30" text-anchor="middle" class="title">ForgeOne Quantum-Grade HyperContainer Runtime Architecture</text>
  
  <!-- Core Runtime -->
  <rect x="300" y="70" width="200" height="80" rx="10" ry="10" class="box core" />
  <text x="400" y="100" text-anchor="middle" class="module">Runtime Core</text>
  <text x="400" y="120" text-anchor="middle" class="description">Main Control Loop</text>
  <text x="400" y="140" text-anchor="middle" class="description">Initialization & Shutdown</text>
  
  <!-- Left Column Modules -->
  <!-- Security -->
  <rect x="100" y="200" width="180" height="70" rx="10" ry="10" class="box security" />
  <text x="190" y="225" text-anchor="middle" class="module">Security</text>
  <text x="190" y="245" text-anchor="middle" class="description">ZTA, Policies, Enforcement</text>
  
  <!-- Contract -->
  <rect x="100" y="290" width="180" height="70" rx="10" ry="10" class="box security" />
  <text x="190" y="315" text-anchor="middle" class="module">Contract</text>
  <text x="190" y="335" text-anchor="middle" class="description">ZTA Contracts, RBAC</text>
  
  <!-- DNA -->
  <rect x="100" y="380" width="180" height="70" rx="10" ry="10" class="box security" />
  <text x="190" y="405" text-anchor="middle" class="module">DNA</text>
  <text x="190" y="425" text-anchor="middle" class="description">Runtime Behavior Fingerprint</text>
  
  <!-- Attestation -->
  <rect x="100" y="470" width="180" height="70" rx="10" ry="10" class="box security" />
  <text x="190" y="495" text-anchor="middle" class="module">Attestation</text>
  <text x="190" y="515" text-anchor="middle" class="description">Digital Signatures, Verification</text>
  
  <!-- Center Column Modules -->
  <!-- Registry -->
  <rect x="310" y="200" width="180" height="70" rx="10" ry="10" class="box core" />
  <text x="400" y="225" text-anchor="middle" class="module">Registry</text>
  <text x="400" y="245" text-anchor="middle" class="description">Container Management</text>
  
  <!-- Lifecycle -->
  <rect x="310" y="290" width="180" height="70" rx="10" ry="10" class="box core" />
  <text x="400" y="315" text-anchor="middle" class="module">Lifecycle</text>
  <text x="400" y="335" text-anchor="middle" class="description">Container State Management</text>
  
  <!-- Config -->
  <rect x="310" y="380" width="180" height="70" rx="10" ry="10" class="box core" />
  <text x="400" y="405" text-anchor="middle" class="module">Config</text>
  <text x="400" y="425" text-anchor="middle" class="description">Container Configuration</text>
  
  <!-- State -->
  <rect x="310" y="470" width="180" height="70" rx="10" ry="10" class="box core" />
  <text x="400" y="495" text-anchor="middle" class="module">State</text>
  <text x="400" y="515" text-anchor="middle" class="description">Persistence & Recovery</text>
  
  <!-- Right Column Modules -->
  <!-- Engine -->
  <rect x="520" y="200" width="180" height="70" rx="10" ry="10" class="box execution" />
  <text x="610" y="225" text-anchor="middle" class="module">Engine</text>
  <text x="610" y="245" text-anchor="middle" class="description">Multi-Engine Executors</text>
  
  <!-- Scheduler -->
  <rect x="520" y="290" width="180" height="70" rx="10" ry="10" class="box execution" />
  <text x="610" y="315" text-anchor="middle" class="module">Scheduler</text>
  <text x="610" y="335" text-anchor="middle" class="description">Task Orchestration</text>
  
  <!-- Network -->
  <rect x="520" y="380" width="180" height="70" rx="10" ry="10" class="box network" />
  <text x="610" y="405" text-anchor="middle" class="module">Network</text>
  <text x="610" y="425" text-anchor="middle" class="description">VIF, Firewall, Mesh</text>
  
  <!-- Filesystem -->
  <rect x="520" y="470" width="180" height="70" rx="10" ry="10" class="box storage" />
  <text x="610" y="495" text-anchor="middle" class="module">Filesystem</text>
  <text x="610" y="515" text-anchor="middle" class="description">OverlayFS, Snapshots</text>
  
  <!-- Connections -->
  <!-- Core to Modules -->
  <path d="M 400 150 L 400 190" class="arrow" />
  
  <!-- Registry to Lifecycle -->
  <path d="M 400 270 L 400 290" class="arrow" />
  
  <!-- Lifecycle to Config -->
  <path d="M 400 360 L 400 380" class="arrow" />
  
  <!-- Config to State -->
  <path d="M 400 450 L 400 470" class="arrow" />
  
  <!-- Security Connections -->
  <path d="M 280 235 L 310 235" class="arrow" />
  <path d="M 280 325 L 310 325" class="arrow" />
  <path d="M 280 415 L 310 415" class="arrow" />
  <path d="M 280 505 L 310 505" class="arrow" />
  
  <!-- Execution Connections -->
  <path d="M 490 235 L 520 235" class="arrow" />
  <path d="M 490 325 L 520 325" class="arrow" />
  <path d="M 490 415 L 520 415" class="arrow" />
  <path d="M 490 505 L 520 505" class="arrow" />
  
  <!-- Cross-module connections -->
  <path d="M 190 360 L 190 380" class="arrow connection" />
  <path d="M 610 360 L 610 380" class="arrow connection" />
  <path d="M 190 270 L 190 290" class="arrow connection" />
  <path d="M 610 270 L 610 290" class="arrow connection" />
</svg>