<svg xmlns="http://www.w3.org/2000/svg" width="1000" height="800" viewBox="0 0 1000 800">
  <!-- Background and Title -->
  <rect width="1000" height="800" fill="#f8f9fa" />
  <text x="500" y="40" font-family="Arial" font-size="24" font-weight="bold" text-anchor="middle" fill="#333">ForgeOne Syscall Security Model</text>
  
  <!-- Main Container -->
  <rect x="50" y="70" width="900" height="680" rx="10" ry="10" fill="#fff" stroke="#ddd" stroke-width="2" />
  
  <!-- Security Layers -->
  <!-- Prevention Layer -->
  <rect x="100" y="100" width="800" height="150" rx="5" ry="5" fill="#e6f7ff" stroke="#1890ff" stroke-width="2" />
  <text x="500" y="125" font-family="Arial" font-size="18" font-weight="bold" text-anchor="middle" fill="#333">Prevention Layer</text>
  
  <!-- Prevention Components -->
  <rect x="120" y="140" width="180" height="100" rx="5" ry="5" fill="#bae7ff" stroke="#1890ff" stroke-width="1" />
  <text x="210" y="165" font-family="Arial" font-size="16" font-weight="bold" text-anchor="middle" fill="#333">Static Analysis</text>
  <text x="210" y="190" font-family="Arial" font-size="12" text-anchor="middle" fill="#333">- Code Verification</text>
  <text x="210" y="210" font-family="Arial" font-size="12" text-anchor="middle" fill="#333">- Signature Validation</text>
  <text x="210" y="230" font-family="Arial" font-size="12" text-anchor="middle" fill="#333">- Manifest Checking</text>
  
  <rect x="320" y="140" width="180" height="100" rx="5" ry="5" fill="#bae7ff" stroke="#1890ff" stroke-width="1" />
  <text x="410" y="165" font-family="Arial" font-size="16" font-weight="bold" text-anchor="middle" fill="#333">Capability Model</text>
  <text x="410" y="190" font-family="Arial" font-size="12" text-anchor="middle" fill="#333">- Least Privilege</text>
  <text x="410" y="210" font-family="Arial" font-size="12" text-anchor="middle" fill="#333">- Permission Sets</text>
  <text x="410" y="230" font-family="Arial" font-size="12" text-anchor="middle" fill="#333">- Capability Tokens</text>
  
  <rect x="520" y="140" width="180" height="100" rx="5" ry="5" fill="#bae7ff" stroke="#1890ff" stroke-width="1" />
  <text x="610" y="165" font-family="Arial" font-size="16" font-weight="bold" text-anchor="middle" fill="#333">Sandboxing</text>
  <text x="610" y="190" font-family="Arial" font-size="12" text-anchor="middle" fill="#333">- Memory Isolation</text>
  <text x="610" y="210" font-family="Arial" font-size="12" text-anchor="middle" fill="#333">- Resource Limits</text>
  <text x="610" y="230" font-family="Arial" font-size="12" text-anchor="middle" fill="#333">- Namespace Isolation</text>
  
  <rect x="720" y="140" width="160" height="100" rx="5" ry="5" fill="#bae7ff" stroke="#1890ff" stroke-width="1" />
  <text x="800" y="165" font-family="Arial" font-size="16" font-weight="bold" text-anchor="middle" fill="#333">Attestation</text>
  <text x="800" y="190" font-family="Arial" font-size="12" text-anchor="middle" fill="#333">- Code Identity</text>
  <text x="800" y="210" font-family="Arial" font-size="12" text-anchor="middle" fill="#333">- Runtime Verification</text>
  <text x="800" y="230" font-family="Arial" font-size="12" text-anchor="middle" fill="#333">- Trusted Execution</text>
  
  <!-- Detection Layer -->
  <rect x="100" y="270" width="800" height="150" rx="5" ry="5" fill="#f6ffed" stroke="#52c41a" stroke-width="2" />
  <text x="500" y="295" font-family="Arial" font-size="18" font-weight="bold" text-anchor="middle" fill="#333">Detection Layer</text>
  
  <!-- Detection Components -->
  <rect x="120" y="310" width="180" height="100" rx="5" ry="5" fill="#d9f7be" stroke="#52c41a" stroke-width="1" />
  <text x="210" y="335" font-family="Arial" font-size="16" font-weight="bold" text-anchor="middle" fill="#333">Syscall Monitoring</text>
  <text x="210" y="360" font-family="Arial" font-size="12" text-anchor="middle" fill="#333">- Pattern Analysis</text>
  <text x="210" y="380" font-family="Arial" font-size="12" text-anchor="middle" fill="#333">- Frequency Tracking</text>
  <text x="210" y="400" font-family="Arial" font-size="12" text-anchor="middle" fill="#333">- Sequence Detection</text>
  
  <rect x="320" y="310" width="180" height="100" rx="5" ry="5" fill="#d9f7be" stroke="#52c41a" stroke-width="1" />
  <text x="410" y="335" font-family="Arial" font-size="16" font-weight="bold" text-anchor="middle" fill="#333">Behavioral Analysis</text>
  <text x="410" y="360" font-family="Arial" font-size="12" text-anchor="middle" fill="#333">- Anomaly Detection</text>
  <text x="410" y="380" font-family="Arial" font-size="12" text-anchor="middle" fill="#333">- Baseline Comparison</text>
  <text x="410" y="400" font-family="Arial" font-size="12" text-anchor="middle" fill="#333">- ML-Based Detection</text>
  
  <rect x="520" y="310" width="180" height="100" rx="5" ry="5" fill="#d9f7be" stroke="#52c41a" stroke-width="1" />
  <text x="610" y="335" font-family="Arial" font-size="16" font-weight="bold" text-anchor="middle" fill="#333">Resource Monitoring</text>
  <text x="610" y="360" font-family="Arial" font-size="12" text-anchor="middle" fill="#333">- CPU Usage</text>
  <text x="610" y="380" font-family="Arial" font-size="12" text-anchor="middle" fill="#333">- Memory Consumption</text>
  <text x="610" y="400" font-family="Arial" font-size="12" text-anchor="middle" fill="#333">- I/O Operations</text>
  
  <rect x="720" y="310" width="160" height="100" rx="5" ry="5" fill="#d9f7be" stroke="#52c41a" stroke-width="1" />
  <text x="800" y="335" font-family="Arial" font-size="16" font-weight="bold" text-anchor="middle" fill="#333">Audit Logging</text>
  <text x="800" y="360" font-family="Arial" font-size="12" text-anchor="middle" fill="#333">- Comprehensive Logs</text>
  <text x="800" y="380" font-family="Arial" font-size="12" text-anchor="middle" fill="#333">- Tamper-Proof Storage</text>
  <text x="800" y="400" font-family="Arial" font-size="12" text-anchor="middle" fill="#333">- Real-time Alerting</text>
  
  <!-- Enforcement Layer -->
  <rect x="100" y="440" width="800" height="150" rx="5" ry="5" fill="#f9f0ff" stroke="#722ed1" stroke-width="2" />
  <text x="500" y="465" font-family="Arial" font-size="18" font-weight="bold" text-anchor="middle" fill="#333">Enforcement Layer</text>
  
  <!-- Enforcement Components -->
  <rect x="120" y="480" width="180" height="100" rx="5" ry="5" fill="#efdbff" stroke="#722ed1" stroke-width="1" />
  <text x="210" y="505" font-family="Arial" font-size="16" font-weight="bold" text-anchor="middle" fill="#333">ZTA Policy Engine</text>
  <text x="210" y="530" font-family="Arial" font-size="12" text-anchor="middle" fill="#333">- Dynamic Policies</text>
  <text x="210" y="550" font-family="Arial" font-size="12" text-anchor="middle" fill="#333">- Context-Aware Rules</text>
  <text x="210" y="570" font-family="Arial" font-size="12" text-anchor="middle" fill="#333">- Risk-Based Access</text>
  
  <rect x="320" y="480" width="180" height="100" rx="5" ry="5" fill="#efdbff" stroke="#722ed1" stroke-width="1" />
  <text x="410" y="505" font-family="Arial" font-size="16" font-weight="bold" text-anchor="middle" fill="#333">Syscall Filtering</text>
  <text x="410" y="530" font-family="Arial" font-size="12" text-anchor="middle" fill="#333">- Allowlist/Denylist</text>
  <text x="410" y="550" font-family="Arial" font-size="12" text-anchor="middle" fill="#333">- Parameter Validation</text>
  <text x="410" y="570" font-family="Arial" font-size="12" text-anchor="middle" fill="#333">- Rate Limiting</text>
  
  <rect x="520" y="480" width="180" height="100" rx="5" ry="5" fill="#efdbff" stroke="#722ed1" stroke-width="1" />
  <text x="610" y="505" font-family="Arial" font-size="16" font-weight="bold" text-anchor="middle" fill="#333">Redzone Protection</text>
  <text x="610" y="530" font-family="Arial" font-size="12" text-anchor="middle" fill="#333">- Memory Guards</text>
  <text x="610" y="550" font-family="Arial" font-size="12" text-anchor="middle" fill="#333">- Execution Barriers</text>
  <text x="610" y="570" font-family="Arial" font-size="12" text-anchor="middle" fill="#333">- Integrity Checks</text>
  
  <rect x="720" y="480" width="160" height="100" rx="5" ry="5" fill="#efdbff" stroke="#722ed1" stroke-width="1" />
  <text x="800" y="505" font-family="Arial" font-size="16" font-weight="bold" text-anchor="middle" fill="#333">Response Actions</text>
  <text x="800" y="530" font-family="Arial" font-size="12" text-anchor="middle" fill="#333">- Syscall Blocking</text>
  <text x="800" y="550" font-family="Arial" font-size="12" text-anchor="middle" fill="#333">- Process Termination</text>
  <text x="800" y="570" font-family="Arial" font-size="12" text-anchor="middle" fill="#333">- Isolation Measures</text>
  
  <!-- Recovery Layer -->
  <rect x="100" y="610" width="800" height="120" rx="5" ry="5" fill="#fff0f6" stroke="#eb2f96" stroke-width="2" />
  <text x="500" y="635" font-family="Arial" font-size="18" font-weight="bold" text-anchor="middle" fill="#333">Recovery Layer</text>
  
  <!-- Recovery Components -->
  <rect x="150" y="650" width="160" height="70" rx="5" ry="5" fill="#ffd6e7" stroke="#eb2f96" stroke-width="1" />
  <text x="230" y="675" font-family="Arial" font-size="16" font-weight="bold" text-anchor="middle" fill="#333">Forensic Analysis</text>
  <text x="230" y="695" font-family="Arial" font-size="12" text-anchor="middle" fill="#333">- Root Cause Analysis</text>
  
  <rect x="330" y="650" width="160" height="70" rx="5" ry="5" fill="#ffd6e7" stroke="#eb2f96" stroke-width="1" />
  <text x="410" y="675" font-family="Arial" font-size="16" font-weight="bold" text-anchor="middle" fill="#333">State Recovery</text>
  <text x="410" y="695" font-family="Arial" font-size="12" text-anchor="middle" fill="#333">- Checkpoint Restore</text>
  
  <rect x="510" y="650" width="160" height="70" rx="5" ry="5" fill="#ffd6e7" stroke="#eb2f96" stroke-width="1" />
  <text x="590" y="675" font-family="Arial" font-size="16" font-weight="bold" text-anchor="middle" fill="#333">Policy Updates</text>
  <text x="590" y="695" font-family="Arial" font-size="12" text-anchor="middle" fill="#333">- Adaptive Security</text>
  
  <rect x="690" y="650" width="160" height="70" rx="5" ry="5" fill="#ffd6e7" stroke="#eb2f96" stroke-width="1" />
  <text x="770" y="675" font-family="Arial" font-size="16" font-weight="bold" text-anchor="middle" fill="#333">Incident Response</text>
  <text x="770" y="695" font-family="Arial" font-size="12" text-anchor="middle" fill="#333">- Automated Remediation</text>
  
  <!-- Connecting Lines -->
  <!-- Prevention to Detection -->
  <line x1="500" y1="250" x2="500" y2="270" stroke="#333" stroke-width="2" />
  
  <!-- Detection to Enforcement -->
  <line x1="500" y1="420" x2="500" y2="440" stroke="#333" stroke-width="2" />
  
  <!-- Enforcement to Recovery -->
  <line x1="500" y1="590" x2="500" y2="610" stroke="#333" stroke-width="2" />
  
  <!-- Cross-Layer Connections -->
  <path d="M 210 240 Q 210 275 210 310" fill="none" stroke="#333" stroke-width="1" stroke-dasharray="5,5" />
  <path d="M 410 240 Q 410 275 410 310" fill="none" stroke="#333" stroke-width="1" stroke-dasharray="5,5" />
  <path d="M 610 240 Q 610 275 610 310" fill="none" stroke="#333" stroke-width="1" stroke-dasharray="5,5" />
  <path d="M 800 240 Q 800 275 800 310" fill="none" stroke="#333" stroke-width="1" stroke-dasharray="5,5" />
  
  <path d="M 210 410 Q 210 445 210 480" fill="none" stroke="#333" stroke-width="1" stroke-dasharray="5,5" />
  <path d="M 410 410 Q 410 445 410 480" fill="none" stroke="#333" stroke-width="1" stroke-dasharray="5,5" />
  <path d="M 610 410 Q 610 445 610 480" fill="none" stroke="#333" stroke-width="1" stroke-dasharray="5,5" />
  <path d="M 800 410 Q 800 445 800 480" fill="none" stroke="#333" stroke-width="1" stroke-dasharray="5,5" />
  
  <path d="M 210 580 Q 210 615 230 650" fill="none" stroke="#333" stroke-width="1" stroke-dasharray="5,5" />
  <path d="M 410 580 Q 410 615 410 650" fill="none" stroke="#333" stroke-width="1" stroke-dasharray="5,5" />
  <path d="M 610 580 Q 610 615 590 650" fill="none" stroke="#333" stroke-width="1" stroke-dasharray="5,5" />
  <path d="M 800 580 Q 800 615 770 650" fill="none" stroke="#333" stroke-width="1" stroke-dasharray="5,5" />
  
  <!-- Key Features -->
  <rect x="100" y="740" width="800" height="30" rx="5" ry="5" fill="none" />
  <text x="500" y="760" font-family="Arial" font-size="14" text-anchor="middle" fill="#333">
    Key Features: Zero-Trust Architecture | Defense in Depth | Quantum-Grade Attestation | Continuous Monitoring
  </text>
</svg>