<svg xmlns="http://www.w3.org/2000/svg" xmlns:xlink="http://www.w3.org/1999/xlink" width="1200" height="1000" viewBox="0 0 1200 1000">
  <!-- Styles -->
  <style>
    .policy-node { fill: #3498db; stroke: #2980b9; stroke-width: 2; }
    .policy-root { fill: #9b59b6; stroke: #8e44ad; stroke-width: 2; }
    .policy-leaf { fill: #2ecc71; stroke: #27ae60; stroke-width: 2; }
    .policy-decision { fill: #e74c3c; stroke: #c0392b; stroke-width: 2; }
    .connection { stroke: #7f8c8d; stroke-width: 1.5; marker-end: url(#arrowhead); }
    .condition { fill: #f39c12; stroke: #e67e22; stroke-width: 2; }
    .node-label { font-family: Arial; font-size: 14px; fill: #ffffff; font-weight: bold; }
    .condition-label { font-family: Arial; font-size: 12px; fill: #7f8c8d; }
    .header { font-family: Arial; font-size: 24px; fill: #2c3e50; font-weight: bold; }
    .subheader { font-family: Arial; font-size: 18px; fill: #7f8c8d; }
    .note { font-family: Arial; font-size: 14px; fill: #7f8c8d; font-style: italic; }
    .legend-box { fill: #ecf0f1; stroke: #bdc3c7; stroke-width: 1; }
    .legend-title { font-family: Arial; font-size: 16px; fill: #2c3e50; font-weight: bold; }
    .legend-item { font-family: Arial; font-size: 12px; fill: #7f8c8d; }
  </style>
  
  <!-- Markers -->
  <defs>
    <marker id="arrowhead" markerWidth="10" markerHeight="7" refX="9" refY="3.5" orient="auto">
      <polygon points="0 0, 10 3.5, 0 7" fill="#7f8c8d" />
    </marker>
  </defs>
  
  <!-- Title -->
  <text x="600" y="40" text-anchor="middle" class="header">ForgeOne ZTA Policy Graph</text>
  <text x="600" y="70" text-anchor="middle" class="subheader">Policy Evaluation Structure and Flow</text>
  
  <!-- Root Policy Node -->
  <circle cx="600" cy="150" r="50" class="policy-root" />
  <text x="600" y="155" text-anchor="middle" class="node-label">Root Policy</text>
  
  <!-- Level 1 Policy Nodes -->
  <circle cx="300" cy="300" r="40" class="policy-node" />
  <text x="300" y="305" text-anchor="middle" class="node-label">Identity</text>
  
  <circle cx="600" cy="300" r="40" class="policy-node" />
  <text x="600" y="305" text-anchor="middle" class="node-label">Resource</text>
  
  <circle cx="900" cy="300" r="40" class="policy-node" />
  <text x="900" y="305" text-anchor="middle" class="node-label">Context</text>
  
  <!-- Level 2 Identity Policy Nodes -->
  <circle cx="200" cy="450" r="35" class="policy-node" />
  <text x="200" y="455" text-anchor="middle" class="node-label">Trust Vector</text>
  
  <circle cx="400" cy="450" r="35" class="policy-node" />
  <text x="400" y="455" text-anchor="middle" class="node-label">Attestation</text>
  
  <!-- Level 2 Resource Policy Nodes -->
  <circle cx="500" cy="450" r="35" class="policy-node" />
  <text x="500" y="455" text-anchor="middle" class="node-label">Syscall Type</text>
  
  <circle cx="700" cy="450" r="35" class="policy-node" />
  <text x="700" y="455" text-anchor="middle" class="node-label">Arguments</text>
  
  <!-- Level 2 Context Policy Nodes -->
  <circle cx="800" cy="450" r="35" class="policy-node" />
  <text x="800" y="455" text-anchor="middle" class="node-label">Behavior</text>
  
  <circle cx="1000" cy="450" r="35" class="policy-node" />
  <text x="1000" y="455" text-anchor="middle" class="node-label">History</text>
  
  <!-- Level 3 Leaf Nodes -->
  <rect x="150" y="600" width="100" height="50" rx="5" ry="5" class="policy-leaf" />
  <text x="200" y="630" text-anchor="middle" class="node-label">Root</text>
  
  <rect x="250" y="600" width="100" height="50" rx="5" ry="5" class="policy-leaf" />
  <text x="300" y="630" text-anchor="middle" class="node-label">Signed</text>
  
  <rect x="350" y="600" width="100" height="50" rx="5" ry="5" class="policy-leaf" />
  <text x="400" y="630" text-anchor="middle" class="node-label">Enclave</text>
  
  <rect x="450" y="600" width="100" height="50" rx="5" ry="5" class="policy-leaf" />
  <text x="500" y="630" text-anchor="middle" class="node-label">File</text>
  
  <rect x="550" y="600" width="100" height="50" rx="5" ry="5" class="policy-leaf" />
  <text x="600" y="630" text-anchor="middle" class="node-label">Network</text>
  
  <rect x="650" y="600" width="100" height="50" rx="5" ry="5" class="policy-leaf" />
  <text x="700" y="630" text-anchor="middle" class="node-label">Process</text>
  
  <rect x="750" y="600" width="100" height="50" rx="5" ry="5" class="policy-leaf" />
  <text x="800" y="630" text-anchor="middle" class="node-label">Normal</text>
  
  <rect x="850" y="600" width="100" height="50" rx="5" ry="5" class="policy-leaf" />
  <text x="900" y="630" text-anchor="middle" class="node-label">Suspicious</text>
  
  <rect x="950" y="600" width="100" height="50" rx="5" ry="5" class="policy-leaf" />
  <text x="1000" y="630" text-anchor="middle" class="node-label">Violation</text>
  
  <!-- Decision Nodes -->
  <polygon points="200,750 150,800 200,850 250,800" class="policy-decision" />
  <text x="200" y="805" text-anchor="middle" class="node-label">Allow</text>
  
  <polygon points="400,750 350,800 400,850 450,800" class="policy-decision" />
  <text x="400" y="805" text-anchor="middle" class="node-label">Warn</text>
  
  <polygon points="600,750 550,800 600,850 650,800" class="policy-decision" />
  <text x="600" y="805" text-anchor="middle" class="node-label">Quarantine</text>
  
  <polygon points="800,750 750,800 800,850 850,800" class="policy-decision" />
  <text x="800" y="805" text-anchor="middle" class="node-label">Block</text>
  
  <polygon points="1000,750 950,800 1000,850 1050,800" class="policy-decision" />
  <text x="1000" y="805" text-anchor="middle" class="node-label">Terminate</text>
  
  <!-- Connections -->
  <!-- Root to Level 1 -->
  <line x1="570" y1="180" x2="330" y2="270" class="connection" />
  <line x1="600" y1="200" x2="600" y2="260" class="connection" />
  <line x1="630" y1="180" x2="870" y2="270" class="connection" />
  
  <!-- Level 1 to Level 2 -->
  <line x1="280" y1="330" x2="220" y2="420" class="connection" />
  <line x1="320" y1="330" x2="380" y2="420" class="connection" />
  
  <line x1="580" y1="330" x2="520" y2="420" class="connection" />
  <line x1="620" y1="330" x2="680" y2="420" class="connection" />
  
  <line x1="880" y1="330" x2="820" y2="420" class="connection" />
  <line x1="920" y1="330" x2="980" y2="420" class="connection" />
  
  <!-- Level 2 to Level 3 -->
  <line x1="180" y1="480" x2="180" y2="600" class="connection" />
  <line x1="200" y1="485" x2="250" y2="600" class="connection" />
  <line x1="220" y1="480" x2="300" y2="600" class="connection" />
  
  <line x1="380" y1="480" x2="350" y2="600" class="connection" />
  <line x1="400" y1="485" x2="400" y2="600" class="connection" />
  <line x1="420" y1="480" x2="450" y2="600" class="connection" />
  
  <line x1="480" y1="480" x2="450" y2="600" class="connection" />
  <line x1="500" y1="485" x2="500" y2="600" class="connection" />
  <line x1="520" y1="480" x2="550" y2="600" class="connection" />
  
  <line x1="680" y1="480" x2="650" y2="600" class="connection" />
  <line x1="700" y1="485" x2="700" y2="600" class="connection" />
  <line x1="720" y1="480" x2="750" y2="600" class="connection" />
  
  <line x1="780" y1="480" x2="750" y2="600" class="connection" />
  <line x1="800" y1="485" x2="800" y2="600" class="connection" />
  <line x1="820" y1="480" x2="850" y2="600" class="connection" />
  
  <line x1="980" y1="480" x2="950" y2="600" class="connection" />
  <line x1="1000" y1="485" x2="1000" y2="600" class="connection" />
  <line x1="1020" y1="480" x2="1050" y2="600" class="connection" />
  
  <!-- Level 3 to Decision -->
  <line x1="200" y1="650" x2="200" y2="750" class="connection" />
  <line x1="300" y1="650" x2="300" y2="700" class="connection" />
  <line x1="300" y1="700" x2="400" y2="750" class="connection" />
  <line x1="400" y1="650" x2="400" y2="750" class="connection" />
  <line x1="500" y1="650" x2="500" y2="700" class="connection" />
  <line x1="500" y1="700" x2="600" y2="750" class="connection" />
  <line x1="600" y1="650" x2="600" y2="750" class="connection" />
  <line x1="700" y1="650" x2="700" y2="700" class="connection" />
  <line x1="700" y1="700" x2="800" y2="750" class="connection" />
  <line x1="800" y1="650" x2="800" y2="750" class="connection" />
  <line x1="900" y1="650" x2="900" y2="700" class="connection" />
  <line x1="900" y1="700" x2="1000" y2="750" class="connection" />
  <line x1="1000" y1="650" x2="1000" y2="750" class="connection" />
  
  <!-- Condition Labels -->
  <rect x="450" y="180" width="100" height="30" rx="15" ry="15" class="condition" />
  <text x="500" y="200" text-anchor="middle" class="condition-label">AND</text>
  
  <rect x="650" y="180" width="100" height="30" rx="15" ry="15" class="condition" />
  <text x="700" y="200" text-anchor="middle" class="condition-label">AND</text>
  
  <rect x="230" y="370" width="70" height="25" rx="12" ry="12" class="condition" />
  <text x="265" y="385" text-anchor="middle" class="condition-label">OR</text>
  
  <rect x="530" y="370" width="70" height="25" rx="12" ry="12" class="condition" />
  <text x="565" y="385" text-anchor="middle" class="condition-label">OR</text>
  
  <rect x="830" y="370" width="70" height="25" rx="12" ry="12" class="condition" />
  <text x="865" y="385" text-anchor="middle" class="condition-label">OR</text>
  
  <!-- Legend -->
  <rect x="100" y="880" width="1000" height="100" rx="10" ry="10" class="legend-box" />
  <text x="600" y="900" text-anchor="middle" class="legend-title">Policy Graph Legend</text>
  
  <circle cx="150" cy="930" r="15" class="policy-root" />
  <text x="200" y="935" text-anchor="start" class="legend-item">Root Policy Node</text>
  
  <circle cx="300" cy="930" r="15" class="policy-node" />
  <text x="350" y="935" text-anchor="start" class="legend-item">Policy Node</text>
  
  <rect x="400" y="915" width="30" height="30" rx="5" ry="5" class="policy-leaf" />
  <text x="450" y="935" text-anchor="start" class="legend-item">Leaf Policy</text>
  
  <polygon points="550,930 535,945 550,960 565,945" class="policy-decision" />
  <text x="600" y="935" text-anchor="start" class="legend-item">Decision</text>
  
  <rect x="650" y="920" width="50" height="20" rx="10" ry="10" class="condition" />
  <text x="730" y="935" text-anchor="start" class="legend-item">Condition</text>
  
  <line x1="800" y1="930" x2="850" y2="930" class="connection" />
  <text x="900" y="935" text-anchor="start" class="legend-item">Connection</text>
  
  <!-- Notes -->
  <text x="600" y="850" text-anchor="middle" class="note">The ZTA Policy Graph evaluates multiple policy factors to determine the appropriate action for each syscall.</text>
  <text x="600" y="870" text-anchor="middle" class="note">Policies are evaluated based on identity context, resource type, and behavioral patterns.</text>
</svg>