<svg xmlns="http://www.w3.org/2000/svg" xmlns:xlink="http://www.w3.org/1999/xlink" width="1200" height="1000" viewBox="0 0 1200 1000">
  <!-- Styles -->
  <style>
    .process { fill: #3498db; stroke: #2980b9; stroke-width: 2; }
    .data-store { fill: #2ecc71; stroke: #27ae60; stroke-width: 2; }
    .external-entity { fill: #e74c3c; stroke: #c0392b; stroke-width: 2; }
    .decision { fill: #f39c12; stroke: #e67e22; stroke-width: 2; }
    .flow { stroke: #7f8c8d; stroke-width: 1.5; marker-end: url(#arrowhead); }
    .trust-flow { stroke: #9b59b6; stroke-width: 1.5; stroke-dasharray: 5,3; marker-end: url(#arrowhead); }
    .data-flow { stroke: #16a085; stroke-width: 1.5; marker-end: url(#arrowhead); }
    .title { font-family: Arial; font-size: 16px; fill: #2c3e50; font-weight: bold; }
    .subtitle { font-family: Arial; font-size: 12px; fill: #7f8c8d; }
    .flow-label { font-family: Arial; font-size: 12px; fill: #7f8c8d; }
    .header { font-family: Arial; font-size: 28px; fill: #2c3e50; font-weight: bold; }
    .subheader { font-family: Arial; font-size: 20px; fill: #7f8c8d; }
    .note { font-family: Arial; font-size: 14px; fill: #7f8c8d; font-style: italic; }
  </style>
  
  <!-- Markers -->
  <defs>
    <marker id="arrowhead" markerWidth="10" markerHeight="7" refX="9" refY="3.5" orient="auto">
      <polygon points="0 0, 10 3.5, 0 7" fill="#7f8c8d" />
    </marker>
  </defs>
  
  <!-- Title -->
  <text x="600" y="50" text-anchor="middle" class="header">ForgeOne Trust Flow Diagram</text>
  <text x="600" y="80" text-anchor="middle" class="subheader">Zero Trust Architecture Data Flow</text>
  
  <!-- External Entities -->
  <rect x="100" y="150" width="180" height="80" rx="10" ry="10" class="external-entity" />
  <text x="190" y="180" text-anchor="middle" class="title">User Process</text>
  <text x="190" y="200" text-anchor="middle" class="subtitle">Container Workload</text>
  
  <rect x="900" y="150" width="180" height="80" rx="10" ry="10" class="external-entity" />
  <text x="990" y="180" text-anchor="middle" class="title">System Resources</text>
  <text x="990" y="200" text-anchor="middle" class="subtitle">Files, Network, Memory</text>
  
  <!-- Syscall Process -->
  <rect x="100" y="300" width="180" height="80" rx="10" ry="10" class="process" />
  <text x="190" y="330" text-anchor="middle" class="title">Syscall Request</text>
  <text x="190" y="350" text-anchor="middle" class="subtitle">execution/syscall.rs</text>
  
  <!-- Identity Context -->
  <rect x="350" y="150" width="180" height="80" rx="10" ry="10" class="data-store" />
  <text x="440" y="180" text-anchor="middle" class="title">Identity Context</text>
  <text x="440" y="200" text-anchor="middle" class="subtitle">common/identity.rs</text>
  
  <!-- Policy Store -->
  <rect x="350" y="300" width="180" height="80" rx="10" ry="10" class="data-store" />
  <text x="440" y="330" text-anchor="middle" class="title">Policy Store</text>
  <text x="440" y="350" text-anchor="middle" class="subtitle">trust/zta_policy.rs</text>
  
  <!-- Trust Evaluation -->
  <rect x="600" y="300" width="180" height="80" rx="10" ry="10" class="process" />
  <text x="690" y="330" text-anchor="middle" class="title">Trust Evaluation</text>
  <text x="690" y="350" text-anchor="middle" class="subtitle">trust/evaluation.rs</text>
  
  <!-- Syscall Enforcement -->
  <polygon points="690,450 600,500 690,550 780,500" class="decision" />
  <text x="690" y="510" text-anchor="middle" class="title">Syscall Enforcement</text>
  <text x="690" y="530" text-anchor="middle" class="subtitle">trust/syscall_enforcer.rs</text>
  
  <!-- Redzone -->
  <rect x="350" y="600" width="180" height="80" rx="10" ry="10" class="process" />
  <text x="440" y="630" text-anchor="middle" class="title">Redzone</text>
  <text x="440" y="650" text-anchor="middle" class="subtitle">trust/redzone.rs</text>
  
  <!-- Attestation -->
  <rect x="600" y="150" width="180" height="80" rx="10" ry="10" class="process" />
  <text x="690" y="180" text-anchor="middle" class="title">Attestation</text>
  <text x="690" y="200" text-anchor="middle" class="subtitle">trust/attestation.rs</text>
  
  <!-- Execution -->
  <rect x="900" y="450" width="180" height="80" rx="10" ry="10" class="process" />
  <text x="990" y="480" text-anchor="middle" class="title">Syscall Execution</text>
  <text x="990" y="500" text-anchor="middle" class="subtitle">execution/syscall.rs</text>
  
  <!-- Observer -->
  <rect x="600" y="600" width="180" height="80" rx="10" ry="10" class="process" />
  <text x="690" y="630" text-anchor="middle" class="title">Observer</text>
  <text x="690" y="650" text-anchor="middle" class="subtitle">observer/tracing.rs</text>
  
  <!-- Behavioral Analysis -->
  <rect x="900" y="600" width="180" height="80" rx="10" ry="10" class="process" />
  <text x="990" y="630" text-anchor="middle" class="title">Behavioral Analysis</text>
  <text x="990" y="650" text-anchor="middle" class="subtitle">observer/forensic.rs</text>
  
  <!-- Trust Vector Update -->
  <rect x="350" y="450" width="180" height="80" rx="10" ry="10" class="process" />
  <text x="440" y="480" text-anchor="middle" class="title">Trust Vector Update</text>
  <text x="440" y="500" text-anchor="middle" class="subtitle">trust/evaluation.rs</text>
  
  <!-- Connections -->
  <!-- User Process to Syscall Request -->
  <path d="M 190 230 L 190 300" class="flow" />
  <text x="200" y="265" class="flow-label">Initiates Syscall</text>
  
  <!-- Syscall Request to Trust Evaluation -->
  <path d="M 280 340 L 600 340" class="flow" />
  <text x="440" y="330" class="flow-label">Syscall Context</text>
  
  <!-- Identity Context to Trust Evaluation -->
  <path d="M 440 230 L 440 300 L 600 340" class="trust-flow" />
  <text x="500" y="270" class="flow-label">Identity & Trust Vector</text>
  
  <!-- Policy Store to Trust Evaluation -->
  <path d="M 530 340 L 600 340" class="trust-flow" />
  <text x="565" y="330" class="flow-label">Policies</text>
  
  <!-- Attestation to Trust Evaluation -->
  <path d="M 690 230 L 690 300" class="trust-flow" />
  <text x="700" y="265" class="flow-label">Attestation Claims</text>
  
  <!-- Trust Evaluation to Syscall Enforcement -->
  <path d="M 690 380 L 690 450" class="flow" />
  <text x="700" y="415" class="flow-label">Trust Decision</text>
  
  <!-- Syscall Enforcement to Execution (Allow) -->
  <path d="M 780 500 L 900 490" class="flow" />
  <text x="840" y="480" class="flow-label">Allow</text>
  
  <!-- Syscall Enforcement to Redzone (Quarantine) -->
  <path d="M 690 550 L 690 580 L 530 580 L 440 600" class="flow" />
  <text x="600" y="570" class="flow-label">Quarantine</text>
  
  <!-- Syscall Enforcement to Trust Vector Update (Warn) -->
  <path d="M 600 500 L 530 500 L 530 490" class="flow" />
  <text x="550" y="480" class="flow-label">Warn</text>
  
  <!-- Trust Vector Update to Identity Context -->
  <path d="M 440 450 L 440 230" class="trust-flow" />
  <text x="450" y="400" class="flow-label">Update Trust Vector</text>
  
  <!-- Execution to System Resources -->
  <path d="M 990 450 L 990 230" class="flow" />
  <text x="1000" y="340" class="flow-label">Access Resources</text>
  
  <!-- Execution to Observer -->
  <path d="M 990 530 L 990 560 L 780 560 L 690 600" class="data-flow" />
  <text x="850" y="550" class="flow-label">Execution Trace</text>
  
  <!-- Observer to Behavioral Analysis -->
  <path d="M 780 640 L 900 640" class="data-flow" />
  <text x="840" y="630" class="flow-label">Execution DNA</text>
  
  <!-- Behavioral Analysis to Trust Evaluation -->
  <path d="M 990 600 C 990 400 800 250 780 300" class="trust-flow" />
  <text x="900" y="400" class="flow-label">Behavioral Insights</text>
  
  <!-- Redzone to Trust Vector Update -->
  <path d="M 440 600 L 440 530" class="flow" />
  <text x="450" y="565" class="flow-label">Quarantine Status</text>
  
  <!-- System Resources to Attestation -->
  <path d="M 900 190 L 780 190" class="trust-flow" />
  <text x="840" y="180" class="flow-label">Attestation Data</text>
  
  <!-- Legend -->
  <rect x="100" y="750" width="1000" height="150" rx="10" ry="10" fill="#ecf0f1" stroke="#bdc3c7" stroke-width="2" />
  <text x="600" y="780" text-anchor="middle" class="title">Legend</text>
  
  <rect x="150" y="800" width="100" height="50" rx="5" ry="5" class="process" />
  <text x="200" y="830" text-anchor="middle" class="subtitle">Process</text>
  
  <rect x="300" y="800" width="100" height="50" rx="5" ry="5" class="data-store" />
  <text x="350" y="830" text-anchor="middle" class="subtitle">Data Store</text>
  
  <rect x="450" y="800" width="100" height="50" rx="5" ry="5" class="external-entity" />
  <text x="500" y="830" text-anchor="middle" class="subtitle">External Entity</text>
  
  <polygon points="650,825 600,850 650,875 700,850" class="decision" />
  <text x="650" y="830" text-anchor="middle" class="subtitle">Decision</text>
  
  <line x1="750" y1="825" x2="850" y2="825" class="flow" />
  <text x="800" y="815" class="flow-label">Data Flow</text>
  
  <line x1="750" y1="850" x2="850" y2="850" class="trust-flow" />
  <text x="800" y="840" class="flow-label">Trust Flow</text>
  
  <line x1="900" y1="825" x2="1000" y2="825" class="data-flow" />
  <text x="950" y="815" class="flow-label">Telemetry Flow</text>
  
  <!-- Notes -->
  <text x="600" y="920" text-anchor="middle" class="note">This diagram illustrates the Zero Trust Architecture data flow in the ForgeOne system.</text>
  <text x="600" y="945" text-anchor="middle" class="note">Every syscall is evaluated against policies and identity context before execution.</text>
  <text x="600" y="970" text-anchor="middle" class="note">Continuous observation provides feedback to adapt trust decisions based on behavior.</text>
</svg>